# xmcd CD database file
#
# Track frame offsets:
#	297
#	23591
#	53144
#	78880
#	100707
#	115869
#	136937
#	161917
#
# Disc length: 2615 seconds
#
# Revision: 0
# Processed by: cddbd v1.5.1PL0 Copyright (c) Steve Scherf et al.
# Submitted via: CDex 1.51
#
DISCID=590a3408
DTITLE=New West Guitar Quartet - Introducing: New West Guitar Quartet
DYEAR=2005
DGENRE=Jazz
TTITLE0=Movin' On
TTITLE1=So What
TTITLE2=All the Things You Are
TTITLE3=Lullaby
TTITLE4=Westbound
TTITLE5=26-2
TTITLE6=Goodbye Pork Pie Hat
TTITLE7=Ephiphany (Congratulations on Your New Self)
EXTD=YEAR: 2005
EXTT0=
EXTT1=
EXTT2=
EXTT3=
EXTT4=
EXTT5=
EXTT6=
EXTT7=
PLAYORDER=
